<svg width="784" height="180" viewBox="0 0 784 180" fill="none" xmlns="http://www.w3.org/2000/svg">
<path d="M178.894 133H162.602V35.5372H178.894V81.5047C181.513 70.3038 188.786 60.703 202.896 60.703C216.716 60.703 225.153 68.9946 225.153 83.6867V133H208.715V88.6326C208.715 79.9046 205.806 73.9404 194.896 73.9404C182.967 73.9404 178.894 81.6502 178.894 93.2875V133ZM249.722 134.455C238.085 134.455 231.102 127.909 231.102 117.726C231.102 107.689 238.085 101.579 249.577 97.0697L273.288 87.0325C272.706 79.9046 269.505 75.1042 259.759 75.1042C250.304 75.1042 242.885 80.6319 238.812 88.0507L229.066 76.4134C234.593 68.8491 245.649 60.703 261.359 60.703C278.961 60.703 288.853 70.7402 288.853 88.1962V114.817C288.853 118.017 290.016 119.035 292.635 119.035H297.144V133H287.107C279.543 133 273.579 129.509 273.579 119.326V114.089C271.397 123.399 264.56 134.455 249.722 134.455ZM246.813 115.253C246.813 119.326 249.577 121.799 255.541 121.799C266.305 121.799 273.579 115.399 273.579 105.798V98.2334L255.395 106.38C249.286 109.143 246.813 111.616 246.813 115.253ZM318.622 133H302.33V62.1576H318.622V81.5047C321.241 70.3038 328.514 60.703 342.624 60.703C356.444 60.703 364.881 68.9946 364.881 83.6867V133H348.443V88.6326C348.443 79.9046 345.534 73.9404 334.623 73.9404C322.695 73.9404 318.622 81.6502 318.622 93.2875V133ZM398.624 134.6C381.168 134.6 370.113 120.49 370.113 97.6515C370.113 74.8132 381.168 60.703 398.333 60.703C412.444 60.703 418.699 70.1583 421.026 81.2138V35.5372H437.319V133H421.026V114.235C418.699 125.145 412.735 134.6 398.624 134.6ZM386.842 97.6515C386.842 113.653 394.551 121.363 404.879 121.363C416.226 121.363 421.026 113.798 421.026 102.161V93.2875C421.026 81.6502 416.226 73.9404 404.734 73.9404C394.551 73.9404 386.842 81.7957 386.842 97.6515ZM476.411 134.455C461.282 134.455 447.463 128.345 442.08 117.144L451.681 106.961C455.609 114.089 464.337 121.363 476.992 121.363C483.975 121.363 488.484 118.89 488.484 113.798C488.484 108.562 483.102 106.816 475.247 104.925L465.791 102.597C454.591 99.979 444.262 95.0331 444.262 82.0866C444.262 68.8491 454.881 60.8484 471.174 60.8484C486.302 60.8484 496.921 68.1218 501.285 76.1224L491.685 86.3051C486.739 78.4499 479.174 73.795 470.01 73.795C463.755 73.795 459.536 76.4134 459.536 81.2138C459.536 86.3051 463.319 88.1962 472.919 90.6691L481.502 92.8511C497.358 96.9242 503.176 103.325 503.176 113.507C503.176 127.472 491.394 134.455 476.411 134.455ZM525.089 133H508.796V35.5372H525.089V81.5047C527.707 70.3038 534.98 60.703 549.091 60.703C562.91 60.703 571.347 68.9946 571.347 83.6867V133H554.909V88.6326C554.909 79.9046 552 73.9404 541.09 73.9404C529.162 73.9404 525.089 81.6502 525.089 93.2875V133ZM595.916 134.455C584.279 134.455 577.296 127.909 577.296 117.726C577.296 107.689 584.279 101.579 595.771 97.0697L619.482 87.0325C618.9 79.9046 615.7 75.1042 605.953 75.1042C596.498 75.1042 589.079 80.6319 585.006 88.0507L575.26 76.4134C580.788 68.8491 591.843 60.703 607.553 60.703C625.155 60.703 635.047 70.7402 635.047 88.1962V114.817C635.047 118.017 636.21 119.035 638.829 119.035H643.338V133H633.301C625.737 133 619.773 129.509 619.773 119.326V114.089C617.591 123.399 610.754 134.455 595.916 134.455ZM593.007 115.253C593.007 119.326 595.771 121.799 601.735 121.799C612.499 121.799 619.773 115.399 619.773 105.798V98.2334L601.589 106.38C595.48 109.143 593.007 111.616 593.007 115.253ZM664.816 133H648.524V35.5372H664.816V80.1955L664.234 93.8694L675.872 81.0683L695.219 62.1576H715.148L686.491 90.0873L715.148 133H696.092L675.435 99.8335L664.816 110.307V133ZM744.837 134.455C723.744 134.455 709.925 119.763 709.925 97.6515C709.925 75.3951 723.744 60.703 743.673 60.703C764.911 60.703 776.694 74.8132 776.694 94.4513C776.694 97.0697 776.403 100.124 776.112 101.579H725.49C726.362 114.235 733.781 121.072 744.982 121.072C757.347 121.072 762.875 114.671 765.493 108.707L775.53 119.181C770.148 127.327 760.547 134.455 744.837 134.455ZM743.673 73.795C733.636 73.795 726.944 79.6136 725.635 91.1055H762.002C760.838 79.9046 754.438 73.795 743.673 73.795Z" fill="black"/>
<g clip-path="url(#clip0_17_2)">
<path d="M104.881 128.266V43.5028C104.881 39.2647 100.501 36.411 96.6303 38.1345L48.4567 59.4947C46.3376 60.4271 44.9531 62.5462 44.9531 64.8631V149.626C44.9531 153.864 49.3325 156.718 53.2034 154.994L101.377 133.634C103.496 132.702 104.881 130.583 104.881 128.266Z" fill="black"/>
<path d="M35.7135 58.8446V113.375C35.7135 115.692 34.3572 117.811 32.2099 118.744L8.25026 129.367C4.37942 131.091 0 128.237 0 123.999V39.2361C0 36.9193 1.35621 34.8002 3.50353 33.8678L51.6771 12.5075C55.548 10.784 59.9274 13.6377 59.9274 17.8759V40.4793C59.9274 42.7962 58.5712 44.9152 56.4239 45.8476L39.1887 53.4763C37.0697 54.4087 35.6852 56.5278 35.6852 58.8446H35.7135Z" fill="black"/>
</g>
<defs>
<clipPath id="clip0_17_2">
<rect width="104.88" height="143.504" fill="white" transform="translate(0 12)"/>
</clipPath>
</defs>
</svg>
