<svg width="705" height="153" viewBox="0 0 705 153" fill="none" xmlns="http://www.w3.org/2000/svg">
<path d="M175.113 113H161.153V30.2316H175.113V64.5743H214.891V30.2316H228.85V113H214.891V76.9278H175.113V113ZM251.887 114.235C242.004 114.235 236.074 108.676 236.074 100.029C236.074 91.5049 242.004 86.3164 251.763 82.4869L271.9 73.963C271.405 67.9097 268.688 63.8331 260.411 63.8331C252.381 63.8331 246.081 68.5274 242.622 74.8277L234.345 64.9449C239.039 58.5211 248.428 51.6031 261.77 51.6031C276.717 51.6031 285.118 60.127 285.118 74.9512V97.5581C285.118 100.276 286.106 101.141 288.33 101.141H292.159V113H283.635C277.212 113 272.147 110.035 272.147 101.388V96.9405C270.294 104.847 264.487 114.235 251.887 114.235ZM249.416 97.9287C249.416 101.388 251.763 103.488 256.828 103.488C265.97 103.488 272.147 98.0523 272.147 89.899V83.4751L256.705 90.3931C251.516 92.7403 249.416 94.8404 249.416 97.9287ZM310.399 113H296.563V52.8385H310.399V69.2686C312.623 59.7564 318.799 51.6031 330.782 51.6031C342.518 51.6031 349.683 58.6446 349.683 71.1216V113H335.724V75.3218C335.724 67.9097 333.253 62.8448 323.988 62.8448C313.858 62.8448 310.399 69.3922 310.399 79.275V113ZM378.339 114.359C363.515 114.359 354.126 102.376 354.126 82.981C354.126 63.586 363.515 51.6031 378.092 51.6031C390.075 51.6031 395.387 59.6329 397.364 69.0216V30.2316H411.2V113H397.364V97.064C395.387 106.329 390.322 114.359 378.339 114.359ZM368.333 82.981C368.333 96.5699 374.88 103.117 383.651 103.117C393.287 103.117 397.364 96.6934 397.364 86.8106V79.275C397.364 69.3922 393.287 62.8448 383.528 62.8448C374.88 62.8448 368.333 69.5157 368.333 82.981ZM444.398 114.235C431.55 114.235 419.814 109.047 415.243 99.5347L423.397 90.8872C426.732 96.9405 434.144 103.117 444.892 103.117C450.822 103.117 454.651 101.017 454.651 96.6934C454.651 92.2461 450.08 90.7637 443.409 89.1578L435.38 87.1812C425.868 84.9576 417.097 80.7574 417.097 69.7628C417.097 58.5211 426.115 51.7267 439.95 51.7267C452.798 51.7267 461.816 57.9034 465.522 64.6978L457.369 73.3453C453.169 66.6744 446.745 62.7213 438.962 62.7213C433.65 62.7213 430.068 64.9449 430.068 69.0216C430.068 73.3453 433.28 74.9512 441.433 77.0513L448.721 78.9043C462.187 82.3633 467.128 87.7989 467.128 96.4463C467.128 108.306 457.122 114.235 444.398 114.235ZM485.737 113H471.901V30.2316H485.737V69.2686C487.96 59.7564 494.137 51.6031 506.12 51.6031C517.856 51.6031 525.021 58.6446 525.021 71.1216V113H511.061V75.3218C511.061 67.9097 508.591 62.8448 499.325 62.8448C489.196 62.8448 485.737 69.3922 485.737 79.275V113ZM545.886 114.235C536.003 114.235 530.073 108.676 530.073 100.029C530.073 91.5049 536.003 86.3164 545.762 82.4869L565.898 73.963C565.404 67.9097 562.686 63.8331 554.409 63.8331C546.38 63.8331 540.079 68.5274 536.62 74.8277L528.344 64.9449C533.038 58.5211 542.427 51.6031 555.768 51.6031C570.716 51.6031 579.116 60.127 579.116 74.9512V97.5581C579.116 100.276 580.105 101.141 582.328 101.141H586.158V113H577.634C571.21 113 566.145 110.035 566.145 101.388V96.9405C564.292 104.847 558.486 114.235 545.886 114.235ZM543.415 97.9287C543.415 101.388 545.762 103.488 550.827 103.488C559.969 103.488 566.145 98.0523 566.145 89.899V83.4751L550.703 90.3931C545.515 92.7403 543.415 94.8404 543.415 97.9287ZM604.398 113H590.562V30.2316H604.398V68.1568L603.904 79.7691L613.786 68.898L630.217 52.8385H647.141L622.804 76.5572L647.141 113H630.958L613.416 84.834L604.398 93.7285V113ZM672.354 114.235C654.441 114.235 642.705 101.758 642.705 82.981C642.705 64.0802 654.441 51.6031 671.365 51.6031C689.401 51.6031 699.408 63.586 699.408 80.2632C699.408 82.4869 699.161 85.0811 698.914 86.3164H655.923C656.665 97.064 662.965 102.87 672.477 102.87C682.978 102.87 687.672 97.4346 689.895 92.3697L698.419 101.264C693.849 108.182 685.695 114.235 672.354 114.235ZM671.365 62.7213C662.841 62.7213 657.159 67.6627 656.047 77.4219H686.931C685.942 67.9097 680.507 62.7213 671.365 62.7213Z" fill="black"/>
<g clip-path="url(#clip0_16_325)">
<path d="M101.681 33.1387H61.5L41.4251 53.2135V33.1387H21.3295C12.9927 41.4652 8.3265 46.1313 0 54.4578V73.3195V92.1708C8.3265 100.497 12.9927 105.163 21.3192 113.49H61.5L81.5749 93.4151V73.3195H61.5L81.5749 53.2446L101.66 73.3195L81.5749 93.4047V113.49H101.67C109.997 105.163 114.663 100.497 122.99 92.1708V54.4578C114.663 46.1313 109.997 41.4652 101.67 33.1387H101.681ZM41.4148 93.3944L21.3295 73.3091L41.4148 53.2239V73.3091H61.5L41.4148 93.3944Z" fill="black"/>
</g>
<defs>
<clipPath id="clip0_16_325">
<rect width="123" height="80.3513" fill="white" transform="translate(0 33.1387)"/>
</clipPath>
</defs>
</svg>
