<svg width="521" height="76" viewBox="0 0 521 76" fill="none" xmlns="http://www.w3.org/2000/svg">
<g clip-path="url(#clip0_294_2171)">
<path d="M55.5456 61.5768V16.6857C55.5456 14.4412 53.2263 12.9298 51.1762 13.8426L25.6631 25.1552C24.5408 25.649 23.8076 26.7712 23.8076 27.9983V72.8894C23.8076 75.1339 26.127 76.6453 28.177 75.7325L53.6901 64.4199C54.8124 63.9261 55.5456 62.8039 55.5456 61.5768Z" fill="black"/>
<path d="M18.9141 24.8108V53.6908C18.9141 54.9178 18.1959 56.0401 17.0586 56.5339L4.3694 62.1602C2.31937 63.073 0 61.5617 0 59.3171V14.426C0 13.199 0.718258 12.0767 1.8555 11.5829L27.3686 0.270346C29.4186 -0.64244 31.738 0.868894 31.738 3.11345V15.0844C31.738 16.3114 31.0198 17.4337 29.8825 17.9275L20.7547 21.9677C19.6324 22.4615 18.8992 23.5838 18.8992 24.8108H18.9141Z" fill="black"/>
</g>
<g clip-path="url(#clip1_294_2171)">
<path d="M96.1206 3.59961C96.6438 11.2367 93.9387 25.9883 102.065 30.1792C103.223 30.7684 106.996 31.9467 108.087 31.9467H126.176V3.59961H136.751V71.4103H126.176V42.5074H109.2C107.92 42.5074 103.145 41.5403 101.698 41.1067C99.6159 40.4842 97.8682 39.2614 96.1206 38.0608V71.4103H85.5454V3.59961H96.1206Z" fill="black"/>
<path d="M285.917 71.4103H275.341V62.5171C274.273 63.0173 274.161 64.7738 273.36 65.8187C265.991 75.4234 251.72 73.6447 244.451 64.7515C228.443 45.1531 246.032 9.20233 271.713 25.8549L275.341 30.2903V4.43335L276.176 3.59961H285.082L285.917 4.43335V71.4103ZM259.067 32.0912C245.43 34.1255 245.865 60.2049 259.534 61.8946C267.594 62.8951 274.484 58.2817 275.33 49.9999C276.455 38.9168 271.212 30.2792 259.067 32.0912Z" fill="black"/>
<path d="M520.797 51.4005H485.732C488.381 62.7505 501.739 65.4073 509.687 57.2256C510.144 56.7476 510.155 55.8471 510.222 55.8471H520.797C519.461 68.3198 507.35 72.9777 496.04 71.9549C465.617 69.2092 468.144 17.0505 503.131 22.0752C510.834 23.1757 520.797 32.6136 520.797 40.5619V51.4005ZM486.845 41.9515H509.665C509.153 28.7117 486.901 28.2115 486.845 41.9515Z" fill="black"/>
<path d="M442.874 3.59961V53.6239L461.52 22.4977H473.486L460.874 43.897L475.713 71.4103H463.746L454.284 54.7467C449.486 59.7936 445.379 75.5901 436.061 71.8216C434.915 71.3547 432.855 68.8869 432.855 67.7974V3.59961H442.874Z" fill="black"/>
<path d="M344.915 3.59961V31.3909C352.54 19.4518 370.262 17.3174 376.563 31.7466C376.93 32.5803 378.31 36.1265 378.31 36.6712V71.4103H368.292V43.3411C368.292 42.9743 367.301 39.6616 367.056 39.0168C364.529 32.4803 358.318 30.6016 352.184 33.9254C350.514 34.8259 344.915 40.0062 344.915 41.6736V71.4103H334.896V3.59961H344.915Z" fill="black"/>
<path d="M386.659 38.6175C386.559 20.4865 414.611 17.0959 422.748 30.647C423.36 31.6697 425.62 37.0278 425.62 37.7838V71.4112H415.601V64.7413C406.518 76.7582 381.494 74.5238 383.931 56.1705C385.69 42.8751 403.301 46.677 411.149 43.342C412.295 42.8529 413.286 42.1081 413.687 40.8742C416.113 33.2593 402.455 31.1139 398.091 36.4276C397.479 37.1835 397.356 38.6175 397.234 38.6175H386.659ZM415.045 48.6224C413.252 48.9447 411.883 50.0897 410.047 50.5789C406.451 51.5349 399.739 51.4348 397.034 53.1468C392.904 55.7703 395.241 61.2174 399.772 61.9288C408.11 63.2406 414.332 56.5373 415.045 48.6335V48.6224Z" fill="black"/>
<path d="M182.948 71.4119H172.929V64.1861C171.894 64.8865 171.816 66.1649 170.725 67.2654C163.345 74.7246 145.445 74.48 142.028 62.5298C139.334 53.103 144.722 47.6114 153.538 45.6549C157.256 44.8212 169.98 44.9101 171.148 41.0082C173.62 32.7598 159.115 31.637 155.675 36.1058C155.275 36.6283 154.774 38.6182 154.295 38.6182H143.998C144.21 21.6099 169.234 17.3634 178.74 28.6578C179.731 29.8361 182.959 36.0503 182.959 37.2286V71.4119H182.948ZM172.373 48.623C169.891 49.4457 167.82 50.6018 165.171 51.1576C161.586 51.9024 149.698 51.3799 152.748 58.4834C156.844 67.9991 173.998 57.7608 172.373 48.6341V48.623Z" fill="black"/>
<path d="M233.597 71.4107H223.022V41.674C223.022 40.5401 220.874 36.2936 219.983 35.2598C215.698 30.3352 208.484 32.3806 204.098 36.1046C203.453 36.6493 200.213 40.1955 200.213 40.5624V71.4107H189.638V22.498H200.213V30.8354C208.384 18.7295 227.007 17.9625 232.206 33.0698C232.54 34.0592 233.609 38.1501 233.609 38.8949V71.4107H233.597Z" fill="black"/>
<path d="M291.483 55.8465H302.058C302.125 62.9722 316.073 63.7726 318.344 58.4811C320.614 53.1896 309.282 52.178 305.531 50.9886C296.937 48.2761 289.891 44.6522 291.739 34.1359C294.622 17.7169 323.631 17.5279 327.972 33.5801C328.284 34.7362 328.997 37.3375 327.95 38.049H318.488C317.342 36.6705 317.42 35.2142 316.006 33.858C309.694 27.7328 294.933 36.4482 306.132 40.9393C313.724 43.9741 327.761 43.5072 329.286 54.5014C332.436 77.2013 291.093 78.0906 291.483 55.8465Z" fill="black"/>
</g>
<defs>
<clipPath id="clip0_294_2171">
<rect width="55.5453" height="76.0006" fill="white"/>
</clipPath>
<clipPath id="clip1_294_2171">
<rect width="435.251" height="68.8001" fill="white" transform="translate(85.5454 3.59961)"/>
</clipPath>
</defs>
</svg>
