<svg width="275" height="75" viewBox="0 0 275 75" fill="none" xmlns="http://www.w3.org/2000/svg">
<g clip-path="url(#clip0_408_4)">
<path d="M52.3514 59.7225V17.4129C52.3514 15.2974 50.1654 13.873 48.2332 14.7333L24.1873 25.3953C23.1295 25.8607 22.4385 26.9185 22.4385 28.0749V70.3845C22.4385 72.5 24.6245 73.9244 26.5566 73.0642L50.6026 62.4021C51.6603 61.9367 52.3514 60.879 52.3514 59.7225Z" fill="black"/>
<path d="M17.8264 25.0696V52.2888C17.8264 53.4452 17.1495 54.503 16.0776 54.9684L4.11813 60.2712C2.186 61.1315 0 59.7071 0 57.5916V15.282C0 14.1255 0.676954 13.0678 1.7488 12.6024L25.7948 1.94035C27.7269 1.08005 29.9129 2.50447 29.9129 4.61995V15.9025C29.9129 17.059 29.2359 18.1167 28.1641 18.5821L19.5611 22.39C18.5034 22.8554 17.8123 23.9131 17.8123 25.0696H17.8264Z" fill="black"/>
</g>
<path d="M98.3325 61.8365C94.0105 61.8365 90.8038 60.7212 88.7124 58.4904C86.6211 56.2597 85.5754 52.7509 85.5754 47.9641V32.9762H81.114L81.1837 25.308H82.5082C84.9713 25.0757 86.7373 24.3786 87.8062 23.2167C88.8751 22.0084 89.5257 20.1262 89.7581 17.5701L90.1067 15.8274H96.5898V24.1927H105.164V33.2551H96.5898V47.1275C96.5898 48.8006 97.008 50.0089 97.8446 50.7525C98.6811 51.4961 99.7732 51.8679 101.121 51.8679C101.865 51.8679 102.585 51.7749 103.282 51.589C104.026 51.4031 104.676 51.1475 105.234 50.8222V60.8606C103.793 61.2788 102.492 61.5344 101.33 61.6274C100.215 61.7668 99.2155 61.8365 98.3325 61.8365ZM117.986 61.976C116.081 61.976 114.291 61.6274 112.618 60.9303C110.992 60.2332 109.667 59.141 108.645 57.6539C107.669 56.1667 107.181 54.2148 107.181 51.7982C107.181 49.5674 107.599 47.7549 108.436 46.3607C109.319 44.9665 110.504 43.8511 111.991 43.0146C113.525 42.1781 115.244 41.5274 117.15 41.0627C119.055 40.5515 121.03 40.1332 123.075 39.8079C125.166 39.3896 126.77 39.0643 127.885 38.8319C129 38.5531 129.767 38.2278 130.185 37.856C130.65 37.4377 130.883 36.8568 130.883 36.1132C130.883 34.8584 130.395 33.8592 129.419 33.1157C128.489 32.3721 127.188 32.0003 125.515 32.0003C124.399 32.0003 123.307 32.2094 122.238 32.6277C121.216 32.9995 120.356 33.6501 119.659 34.5796C119.009 35.5091 118.637 36.7871 118.544 38.4137L108.575 36.9498C108.715 34.3472 109.272 32.1629 110.248 30.3969C111.271 28.6309 112.595 27.2367 114.222 26.2143C115.895 25.1454 117.73 24.3786 119.729 23.9138C121.727 23.4491 123.772 23.2167 125.863 23.2167C129.535 23.2167 132.556 23.8673 134.926 25.1686C137.296 26.4699 139.039 28.3986 140.154 30.9546C141.316 33.5107 141.897 36.6709 141.897 40.4353V46.7093C141.897 48.2894 141.897 49.8927 141.897 51.5193C141.943 53.0994 141.99 54.6795 142.036 56.2597C142.083 57.8398 142.129 59.4199 142.176 61H132.347C132.3 59.5128 132.254 57.956 132.207 56.3294C132.161 54.6563 132.114 52.9135 132.068 51.1011H131.371C130.999 53.0994 130.209 54.9352 129 56.6082C127.839 58.2348 126.305 59.5361 124.399 60.512C122.541 61.488 120.403 61.976 117.986 61.976ZM122.796 53.8198C123.633 53.8198 124.492 53.6804 125.375 53.4015C126.258 53.0762 127.095 52.5882 127.885 51.9376C128.722 51.287 129.419 50.4272 129.976 49.3583C130.534 48.2894 130.859 46.9881 130.952 45.4545L130.883 42.5266H132.695C132.137 43.0843 131.394 43.549 130.464 43.9208C129.535 44.2926 128.536 44.5715 127.467 44.7574C126.398 44.9433 125.329 45.1524 124.26 45.3848C123.191 45.5707 122.192 45.8495 121.263 46.2213C120.379 46.5466 119.659 47.0114 119.101 47.6155C118.59 48.1732 118.335 48.94 118.335 49.916C118.335 51.1708 118.753 52.1467 119.589 52.8438C120.472 53.4945 121.541 53.8198 122.796 53.8198ZM146.259 71.8052V39.1108V24.1927H155.949L156.018 35.2767L156.715 35.3464C157.227 32.6044 157.993 30.3505 159.016 28.5845C160.038 26.772 161.363 25.4242 162.989 24.5412C164.662 23.6582 166.614 23.2167 168.845 23.2167C171.866 23.2167 174.422 23.9835 176.513 25.5172C178.651 27.0043 180.278 29.1886 181.393 32.07C182.508 34.9514 183.066 38.4602 183.066 42.5963C183.066 46.8255 182.485 50.3807 181.323 53.2621C180.161 56.1435 178.535 58.3278 176.444 59.8149C174.352 61.2556 171.866 61.976 168.984 61.976C166.847 61.976 164.988 61.5577 163.408 60.7212C161.828 59.8382 160.503 58.5136 159.434 56.7476C158.365 54.9816 157.575 52.7974 157.064 50.1948H156.158C156.437 51.4961 156.669 52.8438 156.855 54.238C157.087 55.6323 157.25 57.0265 157.343 58.4207C157.482 59.7684 157.552 61.0465 157.552 62.2548V71.8052H146.259ZM164.802 52.8438C166.289 52.8438 167.521 52.4023 168.497 51.5193C169.519 50.5898 170.263 49.3815 170.727 47.8944C171.238 46.3607 171.494 44.6877 171.494 42.8752C171.494 40.9233 171.238 39.1805 170.727 37.6469C170.216 36.1132 169.449 34.9049 168.427 34.0219C167.404 33.1389 166.173 32.6974 164.732 32.6974C163.663 32.6974 162.687 32.9298 161.804 33.3945C160.921 33.8592 160.154 34.5331 159.504 35.4161C158.853 36.2991 158.342 37.3448 157.97 38.5531C157.645 39.7614 157.482 41.1324 157.482 42.666V43.4329C157.482 44.6412 157.598 45.7333 157.831 46.7093C158.11 47.6852 158.481 48.5682 158.946 49.3583C159.411 50.1019 159.945 50.7525 160.549 51.3102C161.2 51.8214 161.874 52.2164 162.571 52.4953C163.315 52.7276 164.058 52.8438 164.802 52.8438ZM186.596 71.8052V39.1108V24.1927H196.286L196.355 35.2767L197.052 35.3464C197.564 32.6044 198.33 30.3505 199.353 28.5845C200.375 26.772 201.7 25.4242 203.326 24.5412C204.999 23.6582 206.951 23.2167 209.182 23.2167C212.203 23.2167 214.759 23.9835 216.85 25.5172C218.988 27.0043 220.615 29.1886 221.73 32.07C222.845 34.9514 223.403 38.4602 223.403 42.5963C223.403 46.8255 222.822 50.3807 221.66 53.2621C220.498 56.1435 218.872 58.3278 216.781 59.8149C214.689 61.2556 212.203 61.976 209.321 61.976C207.184 61.976 205.325 61.5577 203.745 60.7212C202.164 59.8382 200.84 58.5136 199.771 56.7476C198.702 54.9816 197.912 52.7974 197.401 50.1948H196.495C196.774 51.4961 197.006 52.8438 197.192 54.238C197.424 55.6323 197.587 57.0265 197.68 58.4207C197.819 59.7684 197.889 61.0465 197.889 62.2548V71.8052H186.596ZM205.139 52.8438C206.626 52.8438 207.858 52.4023 208.833 51.5193C209.856 50.5898 210.6 49.3815 211.064 47.8944C211.575 46.3607 211.831 44.6877 211.831 42.8752C211.831 40.9233 211.575 39.1805 211.064 37.6469C210.553 36.1132 209.786 34.9049 208.764 34.0219C207.741 33.1389 206.51 32.6974 205.069 32.6974C204 32.6974 203.024 32.9298 202.141 33.3945C201.258 33.8592 200.491 34.5331 199.841 35.4161C199.19 36.2991 198.679 37.3448 198.307 38.5531C197.982 39.7614 197.819 41.1324 197.819 42.666V43.4329C197.819 44.6412 197.935 45.7333 198.168 46.7093C198.447 47.6852 198.818 48.5682 199.283 49.3583C199.748 50.1019 200.282 50.7525 200.886 51.3102C201.537 51.8214 202.211 52.2164 202.908 52.4953C203.652 52.7276 204.395 52.8438 205.139 52.8438ZM223.536 29.9787C224.373 27.7014 224.954 25.6101 225.279 23.7047C225.651 21.7993 225.86 19.8938 225.907 17.9884C226 16.0365 226.046 13.9684 226.046 11.7841H236.224C236.224 14.9444 236.015 17.6631 235.596 19.9403C235.225 22.2175 234.713 24.1694 234.063 25.796C233.412 27.3761 232.738 28.7703 232.041 29.9787H223.536ZM248.789 61.976C246.047 61.976 243.584 61.2324 241.4 59.7452C239.216 58.258 237.496 56.0738 236.241 53.1924C234.986 50.2645 234.359 46.6396 234.359 42.3175C234.359 38.2278 234.917 34.7655 236.032 31.9306C237.148 29.0957 238.751 26.9579 240.842 25.5172C242.934 24.03 245.443 23.2864 248.371 23.2864C250.555 23.2864 252.461 23.7279 254.087 24.6109C255.714 25.4475 257.062 26.7952 258.13 28.6542C259.199 30.4666 259.989 32.8136 260.501 35.695H261.477C261.198 34.1148 260.942 32.5812 260.71 31.094C260.477 29.6069 260.292 28.1894 260.152 26.8417C260.013 25.4475 259.943 24.1694 259.943 23.0076V11.7841H271.236V46.4304V61H261.616L261.546 49.7766H260.78C260.268 52.5185 259.478 54.7957 258.409 56.6082C257.34 58.4207 256.016 59.7684 254.436 60.6514C252.856 61.5344 250.974 61.976 248.789 61.976ZM252.832 52.9833C253.855 52.9833 254.808 52.7509 255.691 52.2861C256.62 51.8214 257.387 51.1475 257.991 50.2645C258.642 49.3815 259.13 48.3359 259.455 47.1275C259.827 45.9192 260.013 44.5715 260.013 43.0843V42.2478C260.013 41.0395 259.873 39.9241 259.594 38.9017C259.362 37.8328 259.014 36.9265 258.549 36.1829C258.084 35.3929 257.55 34.719 256.945 34.1613C256.341 33.6036 255.667 33.1854 254.924 32.9065C254.18 32.6277 253.437 32.4883 252.693 32.4883C251.206 32.4883 249.951 32.9762 248.929 33.9522C247.953 34.8817 247.209 36.1132 246.698 37.6469C246.187 39.1805 245.931 40.9 245.931 42.8055C245.931 44.7109 246.187 46.4304 246.698 47.9641C247.256 49.4977 248.046 50.7293 249.068 51.6587C250.137 52.5417 251.392 52.9833 252.832 52.9833Z" fill="black"/>
<defs>
<clipPath id="clip0_408_4">
<rect width="52.3511" height="71.6301" fill="white" transform="translate(0 1.68555)"/>
</clipPath>
</defs>
</svg>
