<svg width="556" height="117" viewBox="0 0 556 117" fill="none" xmlns="http://www.w3.org/2000/svg">
<g clip-path="url(#clip0_395_1200)">
<path d="M85.022 94.2518V25.5391C85.022 22.1035 81.4718 19.7902 78.3339 21.1873L39.2823 38.5029C37.5644 39.2588 36.4421 40.9766 36.4421 42.8547V111.567C36.4421 115.003 39.9923 117.316 43.1302 115.919L82.1819 98.6036C83.8997 97.8477 85.022 96.1299 85.022 94.2518Z" fill="black"/>
<path d="M28.9517 37.976V82.1812C28.9517 84.0593 27.8523 85.7771 26.1115 86.533L6.68876 95.145C3.55089 96.5421 0.000732422 94.2288 0.000732422 90.7932V22.0805C0.000732422 20.2024 1.10013 18.4846 2.84085 17.7287L41.8925 0.413134C45.0304 -0.984023 48.5806 1.3293 48.5806 4.76493V23.0883C48.5806 24.9665 47.4812 26.6843 45.7404 27.4401L31.7689 33.6242C30.0511 34.3801 28.9288 36.0979 28.9288 37.976H28.9517Z" fill="black"/>
</g>
<g clip-path="url(#clip1_395_1200)">
<path d="M544.224 0.933008L521.211 93.6635H496.167L502.258 76.7418C500.079 76.3154 500.235 77.7571 499.355 79.0838C492.39 89.5414 484.978 97.6163 471.048 95.5993C447.778 92.2285 452.644 59.4276 459.663 44.1305C466.506 29.2327 481.418 16.6566 498.8 22.4979C507.017 25.2595 509.921 32.2786 509.704 40.5296L511.017 40.4822C512.046 35.2433 512.249 29.7945 513.19 24.5488C514.604 16.6633 517.501 8.85232 518.842 0.926239H544.224V0.933008ZM495.077 41.6396C483.976 42.9663 477.851 58.6425 479.672 68.3623C481.235 76.7283 491.09 77.2698 496.959 72.9582C505.582 66.6295 512.675 39.5414 495.084 41.6396H495.077Z" fill="black"/>
<path d="M385.78 23.6079L381.38 40.5295L383.018 40.4754C388.785 26.5997 404.123 15.5465 418.953 24.1088C437.56 34.8642 428.95 70.1085 417.924 84.0113C404.515 100.913 377.813 101.014 373.907 76.7756L372.56 76.8907C371.41 82.5561 371.2 88.4042 370.117 94.0763C368.716 101.373 366.015 108.636 364.804 116.007H339.421L362.096 23.6147H385.786L385.78 23.6079ZM392.812 41.3012C376.405 42.8444 370.435 76.4304 388.995 74.7112C405.043 73.2221 410.986 39.5955 392.812 41.3012Z" fill="black"/>
<path d="M302.525 23.6079L298.125 40.5295L299.763 40.4754C305.53 27.439 318.587 16.7378 333.444 22.9784C356.275 32.5696 345.486 74.8872 330.791 88.2553C316.096 101.623 293.509 97.975 290.714 76.9381L289.367 76.7892C288.196 81.8995 288.108 87.2332 287.194 92.3841C285.8 100.256 282.862 108.081 281.535 116H256.491L278.828 23.6079H302.518H302.525ZM309.558 41.3012C292.23 42.9324 287.167 79.6455 307.94 74.2036C322.107 70.4876 327.088 39.6564 309.558 41.3012Z" fill="black"/>
<path d="M229.085 93.6634L232.47 81.1414C231.881 81.0872 231.434 81.094 230.926 81.4527C230.236 81.9468 227.644 86.3465 226.554 87.5716C214.235 101.468 187.316 97.8193 188.819 76.5725C190.43 53.857 223.373 52.334 240.179 49.2475C241.546 44.5501 239.353 41.9306 234.683 41.5313C223.555 40.5769 211 45.0103 200.657 48.6451L206.417 26.4846C211.284 24.9955 216.211 23.574 221.241 22.6941C243.868 18.7277 267.978 21.5028 263.511 50.7501C261.392 64.6191 255.693 78.9213 253.114 92.8105L252.606 93.6566H229.085V93.6634ZM238.223 58.1347C231.583 60.233 216.733 63.9219 215.582 72.2068C214.431 80.4916 221.931 81.1684 227.508 77.7029C229.823 76.2612 234.433 71.3065 235.583 68.8563C236.964 65.9254 237.201 61.316 238.23 58.1347H238.223Z" fill="black"/>
<path d="M175.613 7.02468L171.68 22.9107L172.059 23.6079H193.55L188.426 44.2049L167.321 44.2522C167.037 44.2658 166.827 44.3808 166.631 44.5771C166.069 45.1525 162.962 58.2633 162.577 60.1518C160.776 68.951 159.246 75.2188 170.997 73.9869C174.99 73.5672 178.875 71.0696 182.375 69.2895L176.872 91.3688C176.757 91.9712 176.554 92.2487 176.046 92.5736C175.051 93.2031 171.559 94.2455 170.266 94.5771C162.529 96.5671 150.867 96.4926 143.787 92.4788C126.825 82.8606 138.9 58.595 141.425 44.2455H130.94L135.516 26.3153C145.35 23.1205 154.63 16.6023 159.03 7.01791H175.613V7.02468Z" fill="black"/>
</g>
<path d="M463.239 0.330627C462.736 4.97178 461.773 10.5147 459.956 16.6164C458.045 23.0293 456.765 28.4339 454.529 32.7409H436.459C437.797 27.8318 439.026 22.2515 439.918 16.0748C440.743 10.3735 441.144 5.0899 441.288 0.330627L463.239 0.330627Z" fill="black"/>
<defs>
<clipPath id="clip0_395_1200">
<rect width="85.0204" height="116.33" fill="white"/>
</clipPath>
<clipPath id="clip1_395_1200">
<rect width="424.394" height="115.669" fill="white" transform="translate(130.94 0.330566)"/>
</clipPath>
</defs>
</svg>
