<svg width="512" height="512" viewBox="0 0 512 512" fill="none" xmlns="http://www.w3.org/2000/svg">
<rect width="512" height="512" rx="108" fill="#A5F41F"/>
<g transform="translate(156, 112) scale(1.9)">
<path d="M104.881 128.266V43.5028C104.881 39.2647 100.501 36.411 96.6303 38.1345L48.4567 59.4947C46.3376 60.4271 44.9531 62.5462 44.9531 64.8631V149.626C44.9531 153.864 49.3325 156.718 53.2034 154.994L101.377 133.634C103.496 132.702 104.881 130.583 104.881 128.266Z" fill="black"/>
<path d="M35.7135 58.8446V113.375C35.7135 115.692 34.3572 117.811 32.2099 118.744L8.25026 129.367C4.37942 131.091 0 128.237 0 123.999V39.2361C0 36.9193 1.35621 34.8002 3.50353 33.8678L51.6771 12.5075C55.548 10.784 59.9274 13.6377 59.9274 17.8759V40.4793C59.9274 42.7962 58.5712 44.9152 56.4239 45.8476L39.1887 53.4763C37.0697 54.4087 35.6852 56.5278 35.6852 58.8446H35.7135Z" fill="black"/>
</g>
</svg>
